<svg width="633" height="422" viewBox="0 0 633 422" fill="none" xmlns="http://www.w3.org/2000/svg">
<path d="M164.018 405.918C254.688 428.668 402.908 431.208 502.948 383.318C595.358 339.088 614.378 176.468 550.958 84.2276C505.888 18.6776 419.538 -7.47241 336.738 1.81759C239.038 12.7776 213.118 80.3376 148.288 128.878C107.948 159.078 25.5582 151.648 9.99825 239.768C-7.72175 340.198 101.418 390.208 164.018 405.918Z" fill="#FEEFE6"/>
<path d="M481.258 403.49C492.888 201.73 580.648 176.89 594.428 193.87C623.298 229.43 523.058 340.76 481.258 403.49Z" fill="#D49BA0"/>
<path d="M584.871 201.852C535.741 259.122 500.691 328.382 483.641 401.882" stroke="#F2CDBF" stroke-miterlimit="10" stroke-linecap="round"/>
<path d="M558.984 203.578C561.834 212.028 563.384 220.908 563.584 229.818C572.964 227.798 582.534 226.708 592.134 226.568" stroke="#F2CDBF" stroke-miterlimit="10" stroke-linecap="round"/>
<path d="M525.203 238.555C530.723 248.145 534.793 258.555 537.253 269.335C548.403 266.945 559.823 265.785 571.223 265.885" stroke="#F2CDBF" stroke-miterlimit="10" stroke-linecap="round"/>
<path d="M501.922 289.258C506.522 296.468 510.492 304.078 513.772 311.978C524.562 307.618 536.252 305.508 547.882 305.828" stroke="#F2CDBF" stroke-miterlimit="10" stroke-linecap="round"/>
<path d="M523.891 337.941C516.811 337.421 509.651 337.961 502.731 339.521C500.931 333.801 498.371 328.321 495.141 323.281" stroke="#F2CDBF" stroke-miterlimit="10" stroke-linecap="round"/>
<path d="M481.258 403.486C545.758 300.786 628.098 266.946 631.838 304.056C637.028 355.446 525.788 388.986 481.258 403.486Z" fill="#D49BA0"/>
<path d="M621.592 307.688C570.812 331.927 523.822 364.098 482.852 402.668" stroke="#F2CDBF" stroke-miterlimit="10" stroke-linecap="round"/>
<path d="M603.345 296.969C603.555 304.129 602.875 311.319 601.305 318.309C608.355 318.989 615.175 321.769 620.685 326.219" stroke="#F2CDBF" stroke-miterlimit="10" stroke-linecap="round"/>
<path d="M568.961 312.852C570.291 320.392 570.821 328.072 570.521 335.732C580.061 336.602 589.361 339.892 597.321 345.202" stroke="#F2CDBF" stroke-miterlimit="10" stroke-linecap="round"/>
<path d="M536.422 336.516C539.052 342.426 540.282 348.946 540.002 355.406C548.822 356.096 557.472 358.896 565.022 363.496" stroke="#F2CDBF" stroke-miterlimit="10" stroke-linecap="round"/>
<path d="M511.117 242.305H368.117V257.305H511.117V242.305Z" fill="#F2CDBF"/>
<path d="M506.898 257.305V403.485H494.228V395.485H384.948V403.485H372.328V257.305H506.898Z" fill="#F2CDBF"/>
<path d="M506.888 257.305H372.328V260.305H506.888V257.305Z" fill="#D4A59B"/>
<path d="M493.039 270.406H385.789V302.906H493.039V270.406Z" fill="#D4A59B"/>
<path d="M494.138 267.406H384.688V299.906H494.138V267.406Z" fill="#FADED2"/>
<path d="M493.039 311.406H385.789V343.906H493.039V311.406Z" fill="#D4A59B"/>
<path d="M494.138 308.406H384.688V340.906H494.138V308.406Z" fill="#FADED2"/>
<path d="M493.039 352.406H385.789V384.906H493.039V352.406Z" fill="#D4A59B"/>
<path d="M494.138 349.406H384.688V381.906H494.138V349.406Z" fill="#FADED2"/>
<path d="M403.195 235.016V212.266H409.445V235.016C409.445 236.536 408.215 237.766 406.695 237.766H405.945C404.425 237.766 403.195 236.536 403.195 235.016Z" fill="white"/>
<path d="M402.062 211.548C402.062 211.158 402.383 210.828 402.783 210.828H409.852C410.242 210.828 410.573 211.148 410.573 211.548C410.573 211.938 410.252 212.268 409.852 212.268H402.783C402.383 212.258 402.062 211.938 402.062 211.548Z" fill="white"/>
<path d="M404.195 234.646V219.766H408.445V234.646C408.445 235.816 407.495 236.766 406.325 236.766C405.145 236.766 404.195 235.816 404.195 234.646Z" fill="#F0D3D8"/>
<path d="M415.695 235.016V212.266H421.945V235.016C421.945 236.536 420.715 237.766 419.195 237.766H418.445C416.925 237.766 415.695 236.536 415.695 235.016Z" fill="white"/>
<path d="M414.562 211.548C414.562 211.158 414.883 210.828 415.283 210.828H422.352C422.742 210.828 423.073 211.148 423.073 211.548C423.073 211.938 422.752 212.268 422.352 212.268H415.283C414.883 212.258 414.562 211.938 414.562 211.548Z" fill="white"/>
<path d="M416.695 234.646V219.766H420.945V234.646C420.945 235.816 419.995 236.766 418.825 236.766C417.645 236.766 416.695 235.816 416.695 234.646Z" fill="#F0D3D8"/>
<path d="M428.945 235.016V212.266H435.195V235.016C435.195 236.536 433.965 237.766 432.445 237.766H431.695C430.175 237.766 428.945 236.536 428.945 235.016Z" fill="white"/>
<path d="M427.812 211.548C427.812 211.158 428.133 210.828 428.533 210.828H435.602C435.992 210.828 436.323 211.148 436.323 211.548C436.323 211.938 436.002 212.268 435.602 212.268H428.533C428.133 212.258 427.812 211.938 427.812 211.548Z" fill="white"/>
<path d="M429.945 234.646V219.766H434.195V234.646C434.195 235.816 433.245 236.766 432.075 236.766C430.895 236.766 429.945 235.816 429.945 234.646Z" fill="#F0D3D8"/>
<path d="M442.445 235.016V212.266H448.695V235.016C448.695 236.536 447.465 237.766 445.945 237.766H445.195C443.675 237.766 442.445 236.536 442.445 235.016Z" fill="white"/>
<path d="M441.312 211.548C441.312 211.158 441.633 210.828 442.033 210.828H449.102C449.492 210.828 449.823 211.148 449.823 211.548C449.823 211.938 449.502 212.268 449.102 212.268H442.033C441.633 212.258 441.312 211.938 441.312 211.548Z" fill="white"/>
<path d="M443.445 234.646V219.766H447.695V234.646C447.695 235.816 446.745 236.766 445.575 236.766C444.395 236.766 443.445 235.816 443.445 234.646Z" fill="#F0D3D8"/>
<path d="M456.945 235.016V212.266H463.195V235.016C463.195 236.536 461.965 237.766 460.445 237.766H459.695C458.175 237.766 456.945 236.536 456.945 235.016Z" fill="white"/>
<path d="M455.812 211.548C455.812 211.158 456.133 210.828 456.533 210.828H463.602C463.992 210.828 464.323 211.148 464.323 211.548C464.323 211.938 464.002 212.268 463.602 212.268H456.533C456.133 212.258 455.812 211.938 455.812 211.548Z" fill="white"/>
<path d="M457.945 234.646V219.766H462.195V234.646C462.195 235.816 461.245 236.766 460.075 236.766C458.895 236.766 457.945 235.816 457.945 234.646Z" fill="#F0D3D8"/>
<path d="M474.016 213.578H397.016V215.578H474.016V213.578Z" fill="#A7C2D9"/>
<path d="M478.984 237.305H392.984V242.305H478.984V237.305Z" fill="#D49BA0"/>
<path d="M398.581 210.828H396.391V239.798H398.581V210.828Z" fill="#D49BA0"/>
<path d="M474.893 210.828H472.703V239.798H474.893V210.828Z" fill="#D49BA0"/>
<path d="M82.3429 313.818C100.463 291.088 109.313 261.278 106.503 232.418C103.693 203.558 89.2529 175.988 66.2629 156.828C66.5929 178.208 65.7129 199.608 63.6129 220.888C61.6229 241.128 58.5629 261.828 63.4029 281.588C66.2829 293.338 71.9429 304.398 82.3429 313.818Z" fill="#BF828B"/>
<path d="M80.6425 339.766C80.6425 268.236 99.6225 245.146 71.8125 169.656" stroke="#F2CDBF" stroke-miterlimit="10" stroke-linecap="round"/>
<path d="M85.0519 182.062C83.1119 186.202 81.1719 190.353 79.2319 194.493C75.7819 192.793 72.0019 191.763 68.1719 191.473" stroke="#F2CDBF" stroke-miterlimit="10" stroke-linecap="round"/>
<path d="M65.6797 225.095C72.9697 225.385 80.1797 227.355 86.6097 230.785C90.8797 225.515 95.9597 220.895 101.61 217.125" stroke="#F2CDBF" stroke-miterlimit="10" stroke-linecap="round"/>
<path d="M64.8516 259.794C72.1716 259.194 79.6916 261.114 85.8116 265.154C91.7616 258.854 98.6116 253.394 106.092 248.984" stroke="#F2CDBF" stroke-miterlimit="10" stroke-linecap="round"/>
<path d="M68.1641 288.387C73.6541 288.977 78.9041 291.597 82.6541 295.627C86.6241 290.217 91.4741 285.437 96.9641 281.547" stroke="#F2CDBF" stroke-miterlimit="10" stroke-linecap="round"/>
<path d="M95.3936 311.637C95.3936 311.637 79.9936 277.947 99.7235 241.077C110.624 220.707 134.174 195.917 163.544 175.188C163.544 175.188 149.564 251.287 132.194 283.107C118.814 307.627 95.3936 311.637 95.3936 311.637Z" fill="#D49BA0"/>
<path d="M152.914 189.914C122.574 238.654 100.974 291.834 83.8438 346.544" stroke="#F2CDBF" stroke-miterlimit="10" stroke-linecap="round"/>
<path d="M133.617 201.984C135.437 206.224 136.897 210.624 137.967 215.104C143.117 214.124 148.327 213.474 153.557 213.144" stroke="#F2CDBF" stroke-miterlimit="10" stroke-linecap="round"/>
<path d="M109.516 232.562C113.776 238.602 117.226 245.203 119.726 252.143C127.756 248.273 136.396 245.652 145.236 244.402" stroke="#F2CDBF" stroke-miterlimit="10" stroke-linecap="round"/>
<path d="M95.3438 258.422C100.554 265.112 104.514 272.762 106.934 280.862C115.974 277.052 125.424 274.202 135.074 272.372" stroke="#F2CDBF" stroke-miterlimit="10" stroke-linecap="round"/>
<path d="M91.5 289.547C94.5 292.897 97.32 296.417 99.93 300.077C106.58 297.347 113.57 295.397 120.68 294.297" stroke="#F2CDBF" stroke-miterlimit="10" stroke-linecap="round"/>
<path d="M66.35 318.46C66.35 318.46 79.7 299.53 69.83 266.7C56.31 221.72 0 189.82 0 189.82C0 189.82 15.1 251.36 26.88 282.02C38.81 313.04 66.35 318.46 66.35 318.46Z" fill="#D49BA0"/>
<path d="M69.8309 334.958C69.8309 334.958 62.1509 273.058 7.46094 198.438" stroke="#F2CDBF" stroke-miterlimit="10" stroke-linecap="round"/>
<path d="M27.2781 211.484C25.6781 215.204 24.6081 219.144 24.1081 223.154C20.2881 222.074 16.3081 221.524 12.3281 221.534" stroke="#F2CDBF" stroke-miterlimit="10" stroke-linecap="round"/>
<path d="M20.0625 253.167C27.5225 252.017 35.2525 252.557 42.4725 254.737C43.8725 248.047 47.0225 241.717 51.5225 236.547" stroke="#F2CDBF" stroke-miterlimit="10" stroke-linecap="round"/>
<path d="M67.7922 266.078C62.7022 271.668 58.7122 278.248 56.1222 285.328C49.0522 282.268 40.9022 281.748 33.4922 283.888" stroke="#F2CDBF" stroke-miterlimit="10" stroke-linecap="round"/>
<path d="M49.4141 308.517C54.2841 307.627 59.3041 307.567 64.1941 308.317C65.8941 304.407 68.3341 300.817 71.3541 297.797" stroke="#F2CDBF" stroke-miterlimit="10" stroke-linecap="round"/>
<path d="M117.689 323.672L115.579 335.572L113.269 348.662L112.049 355.522L109.739 368.622L103.579 403.492H58.5987L52.3187 368.622L49.9587 355.522L48.7287 348.662L46.3587 335.572L44.2188 323.672H117.689Z" fill="#D49BA0"/>
<path d="M115.579 335.57L113.269 348.66H48.7294L46.3594 335.57H115.579Z" fill="#FADED2"/>
<path d="M112.051 355.523L109.741 368.623H52.3209L49.9609 355.523H112.051Z" fill="#FADED2"/>
<path d="M199.561 385.234H125.891V392.084H199.561V385.234Z" fill="#326894"/>
<path d="M138.501 321.813C138.501 321.983 138.481 322.163 138.461 322.333L137.321 331.773L127.131 415.883C126.861 418.143 124.861 419.743 122.661 419.453C120.631 419.193 119.141 417.423 119.141 415.383C119.141 415.213 119.161 415.033 119.181 414.863L129.241 331.773L130.501 321.323C130.781 319.073 132.771 317.463 134.971 317.753C137.021 318.003 138.501 319.773 138.501 321.813Z" fill="#4D8AB3"/>
<path d="M138.5 321.813C138.5 321.983 138.48 322.163 138.46 322.333L137.32 331.773H129.25L130.51 321.323C130.79 319.073 132.78 317.463 134.98 317.753C137.02 318.003 138.5 319.773 138.5 321.813Z" fill="#326894"/>
<path d="M167.742 321.104V415.364C167.742 417.644 165.952 419.474 163.742 419.474C162.642 419.474 161.642 419.014 160.912 418.264C160.192 417.524 159.742 416.504 159.742 415.354V321.094C159.742 318.814 161.542 316.984 163.742 316.984C164.852 316.984 165.852 317.444 166.572 318.194C167.292 318.944 167.742 319.974 167.742 321.104Z" fill="#4D8AB3"/>
<path d="M166.559 318.208C167.289 318.948 167.729 319.978 167.729 321.118V331.778H159.719V321.118C159.719 318.838 161.519 317.008 163.719 317.008C164.839 316.998 165.839 317.458 166.559 318.208Z" fill="#326894"/>
<path d="M207.998 415.365C207.998 417.425 206.518 419.185 204.488 419.445C202.288 419.725 200.288 418.125 200.018 415.875L189.828 331.765L188.688 322.325C188.668 322.155 188.648 321.975 188.648 321.805C188.648 319.765 190.138 318.005 192.168 317.735C194.368 317.455 196.358 319.055 196.638 321.305L197.898 331.755L207.958 414.845C207.988 415.035 207.998 415.195 207.998 415.365Z" fill="#4D8AB3"/>
<path d="M197.906 331.765H189.836L188.696 322.325C188.676 322.155 188.656 321.975 188.656 321.805C188.656 319.765 190.146 318.005 192.176 317.735C194.376 317.455 196.366 319.055 196.646 321.305L197.906 331.765Z" fill="#326894"/>
<path d="M215.29 310.473V313.143C215.29 317.813 211.51 321.593 206.84 321.593H131.2C126.53 321.593 122.75 317.813 122.75 313.143V310.473C122.75 305.803 126.53 302.023 131.2 302.023H206.84C211.51 302.013 215.29 305.803 215.29 310.473Z" fill="#994403"/>
<path d="M215.287 310.473V313.143C215.287 317.813 211.507 321.593 206.837 321.593H138.177C133.507 321.593 129.727 317.813 129.727 313.143V310.473C129.727 305.803 133.507 302.023 138.177 302.023H206.837C211.507 302.013 215.287 305.803 215.287 310.473Z" fill="#852E03"/>
<path d="M136.3 142.05C135.35 143.99 134.39 145.94 133.54 147.81C132.96 151.15 133.3 154.57 133.54 157.96C133.78 161.35 133.92 164.8 132.97 168.07C132.02 171.34 129.81 174.42 126.55 175.67C124.43 176.48 121.9 176.54 120.26 178.08C118.4 179.83 118.53 182.77 119.21 185.19C119.78 187.22 120.68 189.24 122.29 190.65C123.9 192.06 126.49 192.98 128.25 191.96C129.99 190.94 132.3 191.68 133.56 193.22C134.82 194.76 135.41 196.75 136.65 198.31C138.41 200.53 141.36 201.68 144.25 201.75C147.14 201.82 150.22 201.41 152.15 200.21C156.28 197.62 161.43 195.9 165.66 198.33C167.89 199.61 169.65 201.65 172.06 202.57C174.11 203.35 176.5 203.2 178.43 202.18C180.36 201.16 181.1 198.98 182.31 197.31C184.53 194.25 189.91 196.72 193.63 195.71C197.61 194.62 200.29 190.25 199.36 186.34C198.43 182.43 194.1 181.04 190.24 180.46C187.59 180.06 186.5 176.69 185.89 174.17C185.28 171.64 185.39 169.01 185.5 166.41C185.73 161.12 188.14 148.78 186.61 147.12C185.81 146.25 182.81 144.05 181.72 143.56C176.7 141.27 171.68 138.97 166.66 136.68C162.09 134.59 157.3 132.46 152.25 132.6C147.21 132.71 139.92 134.68 136.3 142.05Z" fill="#732D02"/>
<path d="M153.698 189.681C153.698 189.681 131.418 193.201 129.058 201.091C126.698 208.981 140.228 264.191 140.228 264.191L190.288 261.131C190.288 261.131 193.928 197.491 185.968 193.501C178.008 189.511 153.698 189.681 153.698 189.681Z" fill="#EBF5FF"/>
<path d="M173.128 191.867C173.128 191.867 169.878 202.937 163.978 205.357C158.088 207.787 145.188 193.017 145.188 193.017C147.787 191.367 148.767 187.397 149.087 183.777C149.407 180.097 149.048 176.797 149.048 176.797L166.948 180.237C166.488 185.777 168.118 188.687 169.828 190.217C171.448 191.677 173.128 191.867 173.128 191.867Z" fill="#FBBD9A"/>
<path d="M169.827 190.225C161.327 191.345 153.627 187.085 149.087 183.785C149.407 180.105 149.047 176.805 149.047 176.805L166.947 180.245C166.477 185.775 168.117 188.695 169.827 190.225Z" fill="#F0997F"/>
<path d="M221.602 399.429C219.672 402.639 186.172 381.989 186.172 378.429C186.172 376.109 190.542 372.749 193.582 370.709C195.212 369.609 196.452 368.879 196.452 368.879L204.272 365.289L207.792 367.179C212.922 376.019 217.822 385.229 220.272 391.639C221.732 395.419 222.322 398.239 221.602 399.429Z" fill="#D43226"/>
<path d="M220.284 391.631C210.684 392.031 197.994 376.501 193.594 370.701C195.224 369.601 196.464 368.871 196.464 368.871L204.284 365.281L207.804 367.171C212.944 376.011 217.834 385.221 220.284 391.631Z" fill="#F0997F"/>
<path d="M187.135 265.844C187.135 265.844 248.115 273.564 250.185 289.174C252.255 304.774 211.935 373.664 211.935 373.664L197.435 369.884L216.355 308.304L167.805 287.704L177.475 265.844H187.135Z" fill="#002A42"/>
<path d="M206.789 401.218C204.859 404.428 171.359 383.778 171.359 380.218C171.359 377.898 175.729 374.538 178.769 372.498C180.399 371.398 181.639 370.668 181.639 370.668L189.459 367.078L192.979 368.968C198.109 377.808 203.009 387.018 205.459 393.428C206.919 397.208 207.509 400.028 206.789 401.218Z" fill="#EB4A2A"/>
<path d="M205.471 393.42C195.871 393.82 183.181 378.29 178.781 372.49C180.411 371.39 181.651 370.66 181.651 370.66L189.471 367.07L192.991 368.96C198.131 377.8 203.021 387.01 205.471 393.42Z" fill="#FBBD9A"/>
<path d="M135.706 260.617C135.706 260.617 114.576 302.397 151.756 306.907C178.766 310.187 196.666 309.527 197.226 311.027C198.146 313.437 179.656 371.777 179.656 371.777L197.866 377.537C197.866 377.537 235.556 296.587 233.506 289.537C231.816 283.737 179.806 274.887 179.806 274.887C184.186 272.807 187.406 265.237 186.936 255.477L135.706 260.617Z" fill="#06384F"/>
<path d="M141.565 257C141.565 257 129.445 283.67 139.145 294.49C150.575 307.24 200.565 303.13 204.045 307.64C206.835 311.25 184.735 370.22 184.735 370.22" stroke="#27788F" stroke-miterlimit="10" stroke-linecap="round"/>
<path d="M181.125 369.328L198.745 374.698" stroke="#27788F" stroke-miterlimit="10" stroke-linecap="round"/>
<path d="M181.686 157.584C185.983 157.097 189.754 159.247 190.11 162.386C190.466 165.525 187.271 168.464 182.974 168.951C178.677 169.438 174.906 167.288 174.55 164.149C174.195 161.01 177.39 158.071 181.686 157.584Z" fill="#F0997F"/>
<path d="M139.148 157.327C139.148 142.497 148.568 130.477 161.218 130.477C173.868 130.477 184.128 142.497 184.128 157.327C184.128 172.157 177.658 184.917 165.748 185.377C153.748 185.837 139.148 172.147 139.148 157.327Z" fill="#FBBD9A"/>
<path d="M140.375 160.765C146.735 157.815 151.975 152.535 154.325 146.085C157.615 149.795 162.415 151.895 167.285 152.805C172.155 153.715 177.155 153.545 181.835 153.415C183.355 154.705 184.415 156.525 184.775 158.485C185.305 154.085 184.835 149.555 183.405 145.355C170.805 141.515 158.285 137.435 145.835 133.125C143.975 141.995 142.115 150.865 140.375 160.765Z" fill="#F0997F"/>
<path d="M152.254 139.3C154.964 144.41 160.204 147.81 165.714 149.57C171.224 151.32 177.084 151.61 182.944 151.78C183.864 155 184.054 158.77 184.054 162.07C186.074 157.39 187.114 153.4 187.304 149.52C187.354 148.4 187.354 147.26 187.324 146.06C187.034 137.9 183.654 133.26 179.124 129.78C174.584 126.3 169.014 124.82 163.294 124.82C157.644 124.82 154.054 126.1 151.904 128.33C151.144 129.12 150.564 130.02 150.144 131.03C149.224 133.19 150.254 135.54 152.254 139.3Z" fill="#8C4206"/>
<path d="M133.411 162.56C133.221 155.31 132.761 142.9 135.681 136.97C137.591 133.09 141.201 129.86 145.491 129.28C149.781 128.71 154.521 131.36 155.511 135.57C153.611 145.31 148.721 154.25 141.791 161.26C139.391 162.42 135.851 163.19 133.411 162.56Z" fill="#8C4206"/>
<path d="M151.891 128.338C160.181 126.098 169.461 128.058 176.311 133.258C181.621 137.288 185.431 143.118 187.301 149.528C187.351 148.408 187.351 147.268 187.321 146.068C187.031 137.908 183.651 133.268 179.121 129.788C174.581 126.308 169.011 124.828 163.291 124.828C157.631 124.828 154.041 126.108 151.891 128.338Z" fill="#A66317"/>
<path d="M130.735 162.791C131.518 159.73 135.55 158.119 139.739 159.191C143.928 160.263 146.69 163.614 145.906 166.674C145.123 169.735 141.091 171.346 136.902 170.274C132.712 169.202 129.951 165.851 130.735 162.791Z" fill="#FBBD9A"/>
<path d="M162.065 166.628C162.722 166.628 163.255 165.777 163.255 164.728C163.255 163.679 162.722 162.828 162.065 162.828C161.408 162.828 160.875 163.679 160.875 164.728C160.875 165.777 161.408 166.628 162.065 166.628Z" fill="#2F344D"/>
<path d="M178.62 166.636C179.277 166.636 179.81 165.785 179.81 164.736C179.81 163.687 179.277 162.836 178.62 162.836C177.962 162.836 177.43 163.687 177.43 164.736C177.43 165.785 177.962 166.636 178.62 166.636Z" fill="#2F344D"/>
<path d="M175.133 155.878C177.173 155.188 180.073 155.338 182.083 156.718" stroke="#8C4206" stroke-width="2" stroke-miterlimit="10" stroke-linecap="round"/>
<path d="M163.086 155.668C160.856 154.678 156.766 154.888 154.836 157.088" stroke="#8C4206" stroke-width="2" stroke-miterlimit="10" stroke-linecap="round"/>
<path d="M170.533 163.578C171.073 165.598 170.673 168.108 170.023 169.688" stroke="#D45E4E" stroke-width="2" stroke-miterlimit="10" stroke-linecap="round"/>
<path d="M169.103 175.565C166.463 176.085 161.683 174.575 160.383 172.375" stroke="#D45E4E" stroke-width="2" stroke-miterlimit="10" stroke-linecap="round"/>
<path d="M178.617 198.617L187.547 193.227C187.547 193.227 195.077 193.867 200.177 203.237C205.247 212.557 214.797 242.687 217.807 244.017C220.817 245.347 257.507 245.817 257.507 245.817L258.007 256.567C258.007 256.567 213.067 263.697 207.707 260.747C202.347 257.787 184.997 223.047 184.997 223.047L178.617 198.617Z" fill="#FBBD9A"/>
<path d="M178.07 197.403L179.79 191.383C179.79 191.383 189.65 191.803 194.69 195.753C199.73 199.703 203.86 210.443 203.86 210.443L191.04 231.143L178.07 197.403Z" fill="#DE3B26"/>
<path d="M193.281 238.909C193.281 238.909 207.051 227.019 209.171 224.049C210.221 222.579 217.671 239.889 216.411 242.009C214.401 245.389 201.851 253.509 201.151 253.039C200.451 252.569 193.281 238.909 193.281 238.909Z" fill="#163649"/>
<path d="M189.671 228.082C193.821 221.492 197.971 214.912 202.111 208.322C202.341 207.962 202.581 207.582 202.941 207.342C203.971 206.652 205.471 207.502 205.891 208.662C206.321 209.832 206.011 211.122 205.691 212.322C207.021 212.112 208.221 213.412 208.381 214.742C208.551 216.082 207.971 217.392 207.341 218.582C203.501 225.852 197.061 231.702 189.461 234.832C189.111 232.572 188.421 230.062 189.671 228.082Z" fill="#B82621"/>
<path d="M251.844 247.496C256.984 243.886 266.924 236.726 267.674 236.386C268.554 235.986 274.594 235.956 277.884 236.946C281.174 237.936 284.234 240.206 285.424 243.446C285.754 244.356 285.844 245.566 285.044 246.096C284.524 246.446 283.804 246.326 283.264 246.006C282.724 245.686 282.324 245.176 281.894 244.716C279.694 242.326 277.704 241.386 274.094 241.186C278.374 241.836 281.094 244.476 282.374 248.636C282.624 249.466 282.724 250.516 282.054 251.056C281.524 251.476 280.724 251.366 280.154 250.996C279.584 250.626 279.194 250.046 278.764 249.516C277.194 247.516 275.094 245.946 272.744 245.006C276.014 246.396 278.464 249.586 278.984 253.126C279.064 253.646 279.094 254.196 278.894 254.676C278.694 255.156 278.184 255.546 277.674 255.456C277.274 255.386 276.984 255.066 276.714 254.766C274.934 252.756 273.534 250.616 271.164 249.176C273.324 252.056 275.144 256.736 274.694 257.956C274.554 258.326 273.634 258.966 272.604 257.946C271.434 256.776 270.614 254.776 268.794 252.546C265.684 256.016 260.654 257.626 256.124 256.606C254.654 253.526 253.214 250.436 251.844 247.496Z" fill="#FBBD9A"/>
<path d="M261.172 242.917C264.822 241.607 268.542 240.487 272.322 239.587C272.822 239.467 273.342 239.347 273.852 239.407C274.362 239.467 274.882 239.737 275.102 240.197C275.332 240.677 275.182 241.267 274.872 241.697C274.562 242.127 274.112 242.437 273.652 242.717C272.062 243.707 270.372 244.547 268.592 245.397C268.242 248.077 266.272 250.467 263.712 251.317" fill="#FBBD9A"/>
<path d="M261.172 242.917C264.822 241.607 268.542 240.487 272.322 239.587C272.822 239.467 273.342 239.347 273.852 239.407C274.362 239.467 274.882 239.737 275.102 240.197C275.332 240.677 275.182 241.267 274.872 241.697C274.562 242.127 274.112 242.437 273.652 242.717C272.062 243.707 270.372 244.547 268.592 245.397C268.242 248.077 266.272 250.467 263.712 251.317" stroke="#D45E4E" stroke-miterlimit="10" stroke-linecap="round"/>
<path d="M170.131 190.409C172.271 192.269 173.661 202.749 174.761 209.409C176.411 219.389 184.811 262.779 185.311 265.849C186.201 271.269 203.361 270.899 204.051 268.069C204.181 267.549 199.041 265.159 198.221 261.699C197.491 258.599 191.791 198.189 189.041 195.009C185.411 190.809 169.441 189.809 170.131 190.409Z" fill="#EB4A2A"/>
<path d="M146.586 190.41C148.376 191.05 153.996 202.99 156.666 213.92C162.246 236.75 158.926 270.65 156.666 275.13C154.406 279.61 132.506 281.58 128.786 280.39C126.626 279.7 124.276 211.36 125.766 202.78C126.766 197.06 146.046 190.22 146.586 190.41Z" fill="#EB4A2A"/>
<path d="M179.39 266.754C184.01 265.064 197.38 261.544 199.23 261.734C201.09 261.924 203.02 262.594 204.19 264.154C204.94 265.154 205.31 266.424 205.66 267.654C206.23 269.654 206.8 271.654 207.37 273.654C207.57 274.354 207.77 275.084 207.67 275.804C207.57 276.524 207.07 277.244 206.39 277.294C205.43 277.374 204.83 276.224 204.48 275.254C203.58 272.764 202.68 270.274 201.79 267.834C202.38 270.904 202.96 273.984 203.55 277.054C203.69 277.784 203.83 278.534 203.66 279.254C203.49 279.974 202.93 280.644 202.24 280.634C201.22 280.614 200.73 279.304 200.5 278.224C199.99 275.824 199.47 273.414 198.68 271.034C199.74 274.414 199.9 278.114 199.12 281.584C199 282.114 198.84 282.674 198.48 283.054C198.12 283.434 197.48 283.574 197.1 283.214C196.81 282.944 196.75 282.484 196.71 282.074C196.4 278.974 196.09 275.864 195.78 272.764C196.08 276.034 196.37 279.404 195.45 282.534C195.29 283.094 195.07 283.654 194.66 284.034C194.25 284.414 193.59 284.534 193.17 284.174C192.76 283.824 192.71 283.194 192.69 282.634C192.62 280.684 192.55 278.734 192.54 276.454C190.82 278.464 188.44 279.804 185.93 280.194C183.42 280.584 180.79 280.004 178.32 279.214C178.54 275.584 178.75 271.944 179.39 266.754Z" fill="#FBBD9A"/>
<path d="M145.192 210.823C143.792 204.353 137.992 193.863 133.262 196.033C130.552 197.283 122.742 199.893 122.742 217.003C122.742 240.133 125.782 270.523 133.262 275.613C137.062 278.203 178.622 280.743 178.622 280.743L181.662 265.853C181.662 265.853 151.032 260.173 149.622 255.973C147.632 250.043 148.912 228.033 145.192 210.823Z" fill="#EB4A2A"/>
<path d="M141.57 207.273C146.71 224.653 147.79 254.223 148.55 256.003C149.24 257.623 153.15 258.303 156.22 259.353" stroke="#B82621" stroke-miterlimit="10" stroke-linecap="round"/>
<path d="M147.442 278.26C141.742 277.69 134.662 276.58 133.082 275.4C131.222 274.01 128.952 267.21 127.352 262.57" stroke="#B82621" stroke-miterlimit="10" stroke-linecap="round"/>
<path d="M146.609 236.02C148.659 233.45 149.499 229.19 149.669 224" stroke="#B82621" stroke-miterlimit="10" stroke-linecap="round"/>
<path d="M372.045 383.453H298.375V390.123H372.045V383.453Z" fill="#326894"/>
<path d="M310.993 321.682C310.993 321.852 310.973 322.022 310.953 322.192L309.813 331.382L299.623 413.292C299.353 415.492 297.353 417.052 295.153 416.772C293.123 416.512 291.633 414.792 291.633 412.812C291.633 412.642 291.653 412.472 291.673 412.302L301.733 331.372L302.993 321.192C303.273 319.002 305.263 317.432 307.463 317.712C309.503 317.982 310.993 319.702 310.993 321.682Z" fill="#4D8AB3"/>
<path d="M310.992 321.68C310.992 321.85 310.972 322.02 310.952 322.19L309.812 331.38H301.742L303.002 321.2C303.282 319.01 305.272 317.44 307.472 317.72C309.502 317.98 310.992 319.7 310.992 321.68Z" fill="#326894"/>
<path d="M340.219 320.992V412.792C340.219 415.012 338.429 416.792 336.219 416.792C335.119 416.792 334.119 416.352 333.389 415.622C332.669 414.902 332.219 413.902 332.219 412.792V320.992C332.219 318.772 334.019 316.992 336.219 316.992C337.329 316.992 338.329 317.432 339.049 318.162C339.779 318.892 340.219 319.892 340.219 320.992Z" fill="#4D8AB3"/>
<path d="M339.051 318.162C339.781 318.882 340.221 319.892 340.221 320.992V331.382H332.211V320.992C332.211 318.772 334.011 316.992 336.211 316.992C337.331 316.992 338.331 317.442 339.051 318.162Z" fill="#326894"/>
<path d="M380.491 412.798C380.491 414.798 379.011 416.518 376.981 416.778C374.781 417.058 372.781 415.498 372.511 413.298L362.321 331.388L361.181 322.198C361.161 322.028 361.141 321.858 361.141 321.688C361.141 319.708 362.631 317.988 364.661 317.728C366.861 317.448 368.851 319.018 369.131 321.208L370.391 331.388L380.451 412.318C380.481 412.478 380.491 412.638 380.491 412.798Z" fill="#4D8AB3"/>
<path d="M370.398 331.38H362.328L361.188 322.19C361.168 322.02 361.148 321.85 361.148 321.68C361.148 319.7 362.638 317.98 364.668 317.72C366.868 317.44 368.858 319.01 369.138 321.2L370.398 331.38Z" fill="#326894"/>
<path d="M387.782 310.473V313.143C387.782 317.813 384.002 321.593 379.332 321.593H303.692C299.022 321.593 295.242 317.813 295.242 313.143V310.473C295.242 305.803 299.022 302.023 303.692 302.023H379.332C384.002 302.013 387.782 305.803 387.782 310.473Z" fill="#994403"/>
<path d="M387.784 310.473V313.143C387.784 317.813 384.004 321.593 379.334 321.593H310.684C306.014 321.593 302.234 317.813 302.234 313.143V310.473C302.234 305.803 306.014 302.023 310.684 302.023H379.334C384.004 302.013 387.784 305.803 387.784 310.473Z" fill="#852E03"/>
<path d="M288.711 189.682C290.231 187.192 288.751 183.952 289.231 181.072C289.371 180.272 289.691 179.462 290.331 178.952C290.971 178.442 291.981 178.372 292.561 178.942C293.271 179.632 293.031 180.792 293.021 181.782C293.001 183.562 293.851 185.212 294.221 186.952C295.121 191.172 292.881 194.642 290.741 198.282C288.051 200.142 284.431 201.452 282.171 201.672C280.751 201.812 273.481 197.802 270.641 189.182C269.211 184.862 269.381 183.072 269.861 182.482C270.341 181.892 271.281 181.612 271.891 182.072C272.261 182.342 272.431 182.802 272.581 183.232C273.491 185.822 274.391 188.412 275.281 191.102C271.771 187.822 269.811 182.952 270.091 178.152C270.141 177.232 270.421 176.122 271.301 175.852C271.861 175.672 272.491 175.932 272.911 176.352C273.331 176.772 273.591 177.312 273.841 177.852C275.101 180.582 276.371 183.302 278.141 186.542C274.931 183.502 273.561 178.662 274.701 174.392C274.891 173.672 275.321 172.832 276.071 172.822C276.831 172.812 277.281 173.652 277.551 174.372C278.831 177.802 280.111 181.242 281.391 184.672C279.561 181.822 278.781 178.312 279.231 174.952C279.391 173.732 280.011 172.262 281.251 172.212C281.951 172.182 282.601 172.662 282.971 173.262C283.341 173.862 283.491 174.562 283.661 175.252C284.621 179.172 286.361 182.892 288.711 189.682Z" fill="#FDBD9B"/>
<path d="M270.633 182.159C271.773 181.849 272.573 182.249 273.013 183.899C273.633 186.229 275.283 191.629 276.983 192.829" stroke="#B0514A" stroke-width="0.5" stroke-miterlimit="10" stroke-linecap="round"/>
<path d="M291.101 196.148L295.291 205.918L284.211 212.628L279.281 199.588L291.101 196.148Z" fill="#FDBD9B"/>
<path d="M290.638 184.648C289.838 180.178 286.468 176.907 282.618 176.497L282.558 176.188C282.558 176.188 280.548 176.548 279.878 176.698C275.498 177.678 272.788 182.587 273.688 187.667C274.598 192.747 278.838 196.408 283.288 195.818C283.968 195.728 285.978 195.368 285.978 195.368L285.918 195.057C289.398 193.357 291.438 189.128 290.638 184.648Z" fill="#316382"/>
<path d="M282.397 176.221C287.073 175.387 291.63 179.008 292.576 184.31C293.522 189.612 290.497 194.585 285.821 195.419C281.145 196.253 276.588 192.632 275.642 187.33C274.697 182.029 277.721 177.055 282.397 176.221Z" fill="#407C91"/>
<path d="M290.604 184.663C289.874 180.593 286.364 177.803 282.764 178.443C282.704 178.453 282.634 178.463 282.574 178.483C279.084 179.213 276.844 182.983 277.564 186.983C278.284 190.993 281.674 193.753 285.214 193.233C285.274 193.233 285.344 193.213 285.404 193.203C288.994 192.573 291.334 188.743 290.604 184.663Z" fill="#EBF5FF"/>
<path d="M325.089 193.542L318.269 188.352C318.269 188.352 313.819 190.872 311.449 196.142C309.079 201.412 305.939 219.002 305.939 219.002L293.199 197.842L276.969 209.362C276.969 209.362 294.969 254.922 305.809 255.472C316.649 256.022 324.279 245.982 324.279 245.982L325.089 193.542Z" fill="white"/>
<path d="M271.328 390.421L273.398 403.471L281.938 406.941L291.748 402.251L289.968 389.391L271.328 390.421Z" fill="#FBBD9A"/>
<path d="M297.272 419.484L253.002 418.844C253.002 418.844 252.702 417.924 252.582 416.594C252.402 414.504 252.692 411.434 255.322 409.374C259.042 406.484 264.952 406.084 268.792 404.594C271.092 403.704 272.482 401.434 272.482 401.434L278.782 401.794C278.782 401.794 279.302 405.304 281.642 405.094C283.982 404.884 291.712 401.094 291.712 401.094C295.712 407.934 296.882 413.454 297.202 416.594C297.382 418.444 297.272 419.484 297.272 419.484Z" fill="#502202"/>
<path d="M297.268 419.484L252.998 418.844C252.998 418.844 252.698 417.924 252.578 416.594H297.188C297.378 418.444 297.268 419.484 297.268 419.484Z" fill="#855321"/>
<path d="M324.281 390.421L326.351 403.471L334.891 406.941L344.701 402.251L342.921 389.391L324.281 390.421Z" fill="#FBBD9A"/>
<path d="M350.217 419.484L305.947 418.844C305.947 418.844 305.647 417.924 305.527 416.594C305.347 414.504 305.637 411.434 308.267 409.374C311.987 406.484 317.897 406.084 321.737 404.594C324.037 403.704 325.427 401.434 325.427 401.434L331.727 401.794C331.727 401.794 332.247 405.304 334.587 405.094C336.927 404.884 344.657 401.094 344.657 401.094C348.657 407.934 349.827 413.454 350.147 416.594C350.327 418.444 350.217 419.484 350.217 419.484Z" fill="#502202"/>
<path d="M350.221 419.484L305.951 418.844C305.951 418.844 305.651 417.924 305.531 416.594H350.141C350.331 418.444 350.221 419.484 350.221 419.484Z" fill="#855321"/>
<path d="M321.676 261.422L314.426 273.172C314.426 273.172 272.916 279.492 266.196 289.662C259.996 299.042 268.396 394.122 268.396 394.122H296.906C296.906 394.122 294.726 323.892 296.906 317.392C299.086 310.892 364.456 311.262 368.206 302.442C371.956 293.622 373.206 262.672 373.206 262.672" fill="#112C45"/>
<path d="M374.365 274.98C374.365 274.98 375.975 300.43 367.615 306.52C360.355 311.81 341.895 313.19 341.895 313.19L345.455 392.35L318.195 394.13C318.195 394.13 304.655 301.74 305.295 292.88C305.935 284.02 332.155 277.61 330.365 276.35C330.365 276.35 310.155 269.49 317.645 261.95C317.815 261.78 318.005 261.6 318.195 261.43C319.935 259.89 341.225 261.48 341.225 261.48L360.855 259.68L368.625 268.49L374.365 274.98Z" fill="#163A4A"/>
<path d="M373.349 283.042C373.179 284.292 372.989 285.632 372.789 286.992C369.429 282.722 363.999 276.472 359.209 273.842C349.279 268.382 317.539 264.652 317.539 264.652L317.659 261.942C317.829 261.772 318.019 261.592 318.209 261.422C319.949 259.882 341.239 261.472 341.239 261.472L360.869 259.672L368.639 268.482L373.349 283.042Z" fill="#112C45"/>
<path d="M360.206 180.781C360.206 180.781 348.516 195.881 341.236 195.111C333.956 194.341 328.266 186.281 328.266 186.281C328.266 186.281 331.186 185.201 332.446 180.431C333.186 177.681 333.356 173.701 332.096 167.991L353.736 164.781C353.736 164.781 353.586 168.391 354.546 172.281C355.366 175.601 356.986 179.141 360.206 180.781Z" fill="#FDBD9B"/>
<path d="M332.444 180.439C333.184 177.689 333.354 173.709 332.094 167.999L353.734 164.789C353.734 164.789 353.584 168.399 354.544 172.289C348.704 177.199 340.664 180.159 332.444 180.439Z" fill="#F0997F"/>
<path d="M312.213 155.194C312.545 152.269 316.061 150.266 320.066 150.72C324.072 151.174 327.051 153.913 326.719 156.838C326.388 159.763 322.871 161.766 318.866 161.312C314.86 160.857 311.881 158.118 312.213 155.194Z" fill="#F0997F"/>
<path d="M320.434 155.976V155.896C320.434 154.936 319.654 154.156 318.694 154.156H317.724C316.764 154.156 315.984 154.936 315.984 155.896V155.976C315.984 156.936 316.764 157.716 317.724 157.716H318.694C319.654 157.716 320.434 156.936 320.434 155.976Z" fill="#4B8394"/>
<path d="M317.444 155.938H315.984V159.938H317.444V155.938Z" fill="#4B8394"/>
<path d="M361.064 147.624C361.064 133.804 351.504 122.594 339.704 122.594C327.904 122.594 318.344 129.974 318.344 147.624C318.344 161.444 323.704 173.434 336.404 174.274C348.174 175.044 361.064 161.454 361.064 147.624Z" fill="#FDBD9B"/>
<path d="M358.546 154.164C354.636 150.404 351.736 145.604 350.316 140.254C348.326 140.894 346.036 140.494 344.586 139.384C340.246 141.144 335.106 140.814 331.166 138.614C328.086 140.054 324.336 139.984 321.216 138.304C319.716 140.344 318.596 142.654 317.906 145.094C318.206 140.334 318.516 135.574 318.826 130.804C330.096 129.214 341.426 128.104 352.786 127.484C353.426 127.444 354.106 127.424 354.686 127.714C355.536 128.154 355.906 129.154 356.186 130.074C358.586 137.974 359.806 146.234 358.546 154.164Z" fill="#F0997F"/>
<path d="M363.971 129.27C363.501 136.37 363.041 145.53 362.571 152.54C361.911 154.95 359.841 154.86 357.031 155.76C354.421 149.94 352.821 143.68 351.851 136.8C349.121 137.52 346.161 137.32 343.371 136.24C339.191 137.85 334.451 137.93 330.161 136.21C326.921 137.28 323.391 137.49 320.341 136.39C319.191 139.88 318.631 145.18 318.331 148.9C317.931 145.49 316.611 134.94 316.281 127.71C316.141 124.61 316.171 122.12 316.531 121.06C317.871 117.13 322.211 118.4 323.371 119.75C324.161 117.93 325.851 116.52 327.781 116.07C329.711 115.62 331.851 116.14 333.621 117.46C334.831 115.19 337.331 113.67 339.891 113.61C342.461 113.57 345.011 115 345.901 117.45C347.091 116.79 348.341 116.19 349.671 115.93C351.011 115.68 352.461 115.81 353.611 116.54C354.161 116.89 354.631 117.39 354.991 118.01C355.381 118.66 355.641 119.43 355.761 120.26C356.841 118.75 359.121 118.47 360.751 119.33C362.391 120.19 363.401 121.94 363.811 123.75C364.221 125.55 364.101 127.43 363.971 129.27Z" fill="#502202"/>
<path d="M354.993 118.012C353.573 117.392 351.963 117.232 350.453 117.572C348.553 118.002 346.843 119.222 345.893 121.072C345.003 118.682 342.473 117.012 339.923 117.132C337.373 117.262 335.013 119.162 333.843 122.142C332.473 120.522 330.253 119.642 328.143 119.892C326.033 120.142 324.073 121.492 323.143 123.612C322.413 122.752 321.093 122.592 320.033 122.982C318.983 123.382 318.153 124.242 317.533 125.182C317.003 125.972 316.603 126.822 316.273 127.702C316.133 124.602 316.163 122.112 316.523 121.052C317.863 117.122 322.203 118.392 323.363 119.742C324.153 117.922 325.843 116.512 327.773 116.062C329.703 115.612 331.843 116.132 333.613 117.452C334.823 115.182 337.323 113.662 339.883 113.602C342.453 113.562 345.003 114.992 345.893 117.442C347.083 116.782 348.333 116.182 349.663 115.922C351.003 115.672 352.453 115.802 353.603 116.532C354.163 116.892 354.633 117.392 354.993 118.012Z" fill="#6B4019"/>
<path d="M327 146.565C325.16 146.125 323.14 146.495 321.57 147.555" stroke="#502202" stroke-width="2" stroke-miterlimit="10" stroke-linecap="round"/>
<path d="M341.109 146.924C343.109 146.054 345.549 146.294 347.349 147.534" stroke="#502202" stroke-width="2" stroke-miterlimit="10" stroke-linecap="round"/>
<path d="M332.547 154.562C332.597 156.543 332.797 158.513 333.127 160.463" stroke="#B0514A" stroke-width="2" stroke-miterlimit="10" stroke-linecap="round"/>
<path d="M335.344 165.963C337.744 166.053 340.174 165.153 341.934 163.523" stroke="#B0514A" stroke-width="2" stroke-miterlimit="10" stroke-linecap="round"/>
<path d="M341.885 154.13C342.489 154.024 343.091 154.577 343.23 155.365C343.369 156.154 342.992 156.879 342.389 156.986C341.785 157.092 341.183 156.539 341.044 155.751C340.905 154.962 341.282 154.236 341.885 154.13Z" fill="#2D3A5E"/>
<path d="M325.143 154.357C325.747 154.251 326.349 154.804 326.488 155.592C326.627 156.381 326.25 157.106 325.647 157.213C325.043 157.32 324.441 156.766 324.302 155.978C324.163 155.189 324.539 154.463 325.143 154.357Z" fill="#2D3A5E"/>
<path d="M359.22 150.719C363.214 150.168 366.777 152.086 367.179 155.002C367.581 157.918 364.67 160.728 360.676 161.279C356.682 161.83 353.119 159.912 352.717 156.996C352.315 154.08 355.226 151.269 359.22 150.719Z" fill="#FDBD9B"/>
<path d="M358.992 155.976V155.896C358.992 154.936 359.772 154.156 360.732 154.156H361.702C362.662 154.156 363.442 154.936 363.442 155.896V155.976C363.442 156.936 362.662 157.716 361.702 157.716H360.732C359.772 157.716 358.992 156.936 358.992 155.976Z" fill="#4B8394"/>
<path d="M363.444 155.938H361.984V159.938H363.444V155.938Z" fill="#4B8394"/>
<path d="M357.541 177.469C357.541 177.469 345.691 184.629 343.631 187.199C341.571 189.779 340.941 193.299 340.941 193.299C340.941 193.299 338.101 187.309 337.461 186.809C336.821 186.309 331.851 181.599 331.851 181.599L326.021 186.019L318.211 190.079L318.541 265.099L371.361 268.679L372.721 187.269L357.541 177.469Z" fill="#69C5C9"/>
<path d="M340.882 193.742C338.382 214.782 342.722 251.552 335.672 265.832" stroke="#3E7C8A" stroke-width="0.5" stroke-miterlimit="10" stroke-linecap="round"/>
<path d="M341.898 190.18C341.898 190.18 342.788 186.86 344.838 185.22C346.888 183.58 357.458 177.36 357.738 177.29C358.018 177.22 363.208 180.84 363.208 180.84L355.368 191.97C355.368 191.97 347.328 186.32 345.448 186.8C343.648 187.27 341.898 190.18 341.898 190.18Z" fill="#9BEBE7"/>
<path d="M339.441 190.19C339.441 190.19 338.831 187.85 337.761 186.53C336.521 185 332.421 180.58 332.001 180.61C331.581 180.63 327.421 183.13 326.681 184.64C325.941 186.15 326.361 193.29 326.361 193.29C326.361 193.29 333.381 186.61 336.121 187.37C337.941 187.88 339.441 190.19 339.441 190.19Z" fill="#9BEBE7"/>
<path d="M362.078 179.539C362.078 179.539 352.908 188.159 351.528 196.909C350.148 205.659 350.678 251.699 359.168 267.019C366.528 280.309 367.228 322.639 367.228 342.289L392.988 333.409C392.988 333.409 392.878 298.159 384.558 265.519C378.108 240.219 384.298 193.989 380.608 189.469C378.038 186.309 362.078 179.539 362.078 179.539Z" fill="white"/>
<path d="M351.21 228.673C351.21 228.673 349.08 204.353 351.14 196.523C353.2 188.693 359.16 178.743 360.77 178.393C363.43 177.823 369.38 182.433 369.38 182.433C369.38 182.433 364.56 190.773 363.14 203.423C363.01 204.563 353.56 208.053 353.56 208.053C353.56 208.053 360.94 213.453 360.84 213.983C360.73 214.533 351.21 228.673 351.21 228.673Z" fill="#DAE8F7"/>
<path d="M334.299 276.335C339.827 276.335 344.309 273.546 344.309 270.105C344.309 266.664 339.827 263.875 334.299 263.875C328.771 263.875 324.289 266.664 324.289 270.105C324.289 273.546 328.771 276.335 334.299 276.335Z" fill="#407C91"/>
<path d="M348.022 261.946C344.622 261.496 341.222 261.046 337.822 260.596C336.912 260.476 335.932 260.366 335.102 260.756C333.952 261.296 333.422 262.616 333.322 263.976C335.022 264.126 336.722 264.266 338.442 264.546C336.362 267.406 333.812 269.926 330.942 271.996C330.302 272.456 329.632 272.906 329.152 273.526C328.662 274.146 328.392 274.986 328.642 275.736C328.902 276.476 329.642 276.976 330.412 277.126C331.182 277.276 331.972 277.146 332.892 277.196C332.612 278.326 333.182 279.596 334.202 280.146C335.222 280.696 336.602 280.466 337.602 279.706C338.122 280.686 339.132 281.396 340.232 281.556C341.332 281.716 342.502 281.316 343.462 281.046C344.262 281.976 345.492 282.526 346.712 282.506C347.942 282.486 349.142 281.896 350.132 281.016C353.082 278.396 355.432 275.096 356.942 271.446C353.712 268.546 350.712 265.406 348.022 261.946Z" fill="#FBBD9A"/>
<path d="M364.502 198.739C364.252 193.909 366.702 184.819 370.182 183.869C375.602 182.399 384.812 190.539 387.232 197.019C389.652 203.499 396.962 243.209 394.912 248.619C392.102 255.999 354.992 275.849 354.992 275.849L343.492 259.039C343.492 259.039 369.222 245.079 370.752 240.639C371.702 237.859 365.092 210.069 364.502 198.739Z" fill="white"/>
<path d="M376.953 190.422C376.953 190.422 372.803 195.852 372.803 205.632C372.803 215.412 375.203 238.572 374.643 239.422C374.093 240.272 355.953 252.032 355.953 252.032" stroke="#B8C8E3" stroke-miterlimit="10" stroke-linecap="round"/>
<path d="M373.105 220.377C370.365 217.127 368.475 213.337 367.625 209.367" stroke="#B8C8E3" stroke-miterlimit="10" stroke-linecap="round"/>
<path d="M363.25 271.857C369.14 268.647 377.66 263.637 382.79 259.547" stroke="#B8C8E3" stroke-miterlimit="10" stroke-linecap="round"/>
<path d="M330.371 181.25C330.371 181.25 328.811 187.25 328.811 197.68C328.811 215.18 326.531 263.84 317.321 271.03C310.081 276.68 301.011 276.32 296.891 276.32C296.891 276.32 305.461 271.76 308.661 266.47C312.221 260.59 312.821 241.9 313.291 232.16C313.791 221.84 314.721 193.4 315.901 190.92C318.461 185.57 330.371 181.25 330.371 181.25Z" fill="white"/>
<path d="M327.381 230.162C327.381 230.162 329.471 213.692 329.471 202.242C329.471 189.422 331.581 180.602 331.581 180.602C331.581 180.602 324.301 182.912 323.501 184.092C322.701 185.272 318.931 192.042 317.001 204.872C316.681 206.992 325.281 208.742 325.281 208.742C325.281 208.742 318.651 213.892 318.651 215.182C318.661 217.682 327.381 230.162 327.381 230.162Z" fill="#DAE8F7"/>
<path d="M315.5 196.008C315.5 223.908 312.97 246.228 311.75 253.978" stroke="#B8C8E3" stroke-miterlimit="10" stroke-linecap="round"/>
<path d="M311.539 206.008C312.259 210.008 313.999 213.958 315.069 215.168" stroke="#B8C8E3" stroke-miterlimit="10" stroke-linecap="round"/>
<path d="M316.68 159.87C316.68 159.87 318.05 192.06 337.35 193.29C353.64 194.33 362.68 174.31 362.68 159.82" stroke="#163649" stroke-miterlimit="10"/>
<path d="M338.567 193.688C338.567 193.688 326.697 237.068 293.767 244.908C253.467 254.508 213.977 243.717 213.977 243.717" stroke="#163649" stroke-miterlimit="10" stroke-linecap="round"/>
<path d="M285.347 194.914C285.347 194.914 289.897 221.214 269.507 234.834C251.447 246.904 213.977 243.174 213.977 243.174" stroke="#163649" stroke-miterlimit="10" stroke-linecap="round"/>
<path d="M324.969 269.949C324.969 269.949 251.109 270.099 213.469 243.719" stroke="#163649" stroke-miterlimit="10" stroke-linecap="round"/>
<path d="M479.603 84.7857C479.153 76.9057 484.873 69.1057 492.523 67.1757C500.173 65.2457 508.913 69.3957 512.253 76.5457C515.113 82.6657 514.133 89.8357 512.753 96.4557C511.383 103.076 509.673 109.926 511.243 116.496C512.573 122.026 516.143 126.906 516.853 132.546C517.823 140.306 512.363 148.366 504.793 150.336C500.513 151.446 494.983 150.076 493.623 145.866C492.363 141.966 495.243 137.816 494.663 133.766C494.173 130.366 491.403 127.846 489.123 125.286C480.723 115.826 480.603 102.196 479.603 84.7857Z" fill="#381B07"/>
<path d="M406.173 184.399C402.343 180.029 399.543 172.159 399.543 169.509C399.543 166.379 399.043 163.169 400.143 160.239C400.713 158.729 401.583 157.359 402.453 155.999C403.443 154.449 404.423 152.899 405.413 151.349C405.823 150.709 406.293 150.029 407.023 149.829C408.253 149.499 409.383 150.889 409.323 152.169C409.253 153.439 408.413 154.519 406.963 155.649C407.513 153.319 408.693 151.139 410.333 149.399C410.763 148.939 411.343 148.479 411.963 148.619C412.973 148.859 412.943 150.299 412.673 151.299C411.993 153.809 411.323 156.319 410.783 158.479C412.923 162.559 412.733 167.399 412.773 171.999C412.813 176.599 413.263 181.579 416.303 185.039C413.383 186.319 409.943 181.219 406.173 184.399Z" fill="#DB8E62"/>
<path d="M405.734 183.86C405.734 183.86 415.884 218.54 423.554 219.25C432.834 220.12 440.374 211.54 440.374 211.54L446.434 180.48L432.694 172.25L425.114 197.14L414.294 184.91L405.734 183.86Z" fill="#DB8E62"/>
<path d="M451.442 185.658C443.882 182.798 436.292 179.998 428.742 177.098C430.802 167.228 433.662 155.397 436.162 151.617C440.842 144.547 448.402 144.188 448.402 144.188L451.852 154.397L451.442 185.447C451.442 185.447 451.442 185.528 451.442 185.658Z" fill="#1D9FB3"/>
<path d="M444.473 205.747L422.373 148.617L395.273 155.647L420.353 219.257L444.473 205.747Z" fill="#B23F37"/>
<path d="M440.791 202.608L420.881 151.758L398.781 157.748L420.551 213.388L440.791 202.608Z" fill="#EBF5FF"/>
<path d="M413.785 150.375L415.165 154.065L406.495 156.475L404.945 152.705L413.785 150.375Z" fill="#678CA8"/>
<path d="M431.414 412.239C431.494 415.989 470.824 414.719 472.594 411.629C473.744 409.609 471.624 404.529 470.004 401.239C469.144 399.469 468.424 398.219 468.424 398.219L463.424 391.219L459.434 391.109C450.584 396.219 441.764 401.779 436.444 406.129C433.304 408.709 431.384 410.849 431.414 412.239Z" fill="#136D94"/>
<path d="M436.445 406.137C444.575 411.257 463.305 404.097 470.005 401.247C469.145 399.477 468.425 398.227 468.425 398.227L463.425 391.227L459.435 391.117C450.585 396.227 441.755 401.787 436.445 406.137Z" fill="#DB8E62"/>
<path d="M448.516 375.691L449.906 391.021L450.406 396.521L450.756 400.301L466.666 398.631L466.796 395.961V395.951L466.926 393.151L467.806 375.031L467.896 373.211L458.206 374.451L448.516 375.691Z" fill="#DB8E62"/>
<path d="M448.516 375.693L449.906 391.023L457.866 392.013H457.876L464.586 392.863L466.926 393.153L467.806 375.033L458.206 374.453L448.516 375.693Z" fill="#CF6E4A"/>
<path d="M437.276 222.312C437.276 222.312 430.436 241.233 431.786 268.133C433.136 295.033 444.476 388.842 444.476 388.842L472.736 387.513L467.896 266.413L461.076 228.913" fill="#1D9FB3"/>
<path d="M502.122 411.865C504.612 414.665 533.722 388.185 533.072 384.695C532.642 382.415 527.732 379.925 524.362 378.475C522.562 377.695 521.202 377.205 521.202 377.205L512.852 375.125L509.742 377.625C506.322 387.255 503.212 397.215 501.992 403.965C501.262 407.945 501.202 410.825 502.122 411.865Z" fill="#136D94"/>
<path d="M501.992 403.957C511.502 402.577 521.112 384.977 524.362 378.467C522.562 377.687 521.202 377.197 521.202 377.197L512.852 375.117L509.742 377.617C506.322 387.247 503.212 397.197 501.992 403.957Z" fill="#DB8E62"/>
<path d="M491.43 372.96L498.04 379.43L506.37 387.58L509.09 390.23L520.12 378.65L518.48 376.52L513.71 370.34L504.57 358.5L491.43 372.96Z" fill="#DB8E62"/>
<path d="M491.43 372.96L498.04 379.43L513.71 370.34L504.57 358.5L491.43 372.96Z" fill="#CF6E4A"/>
<path d="M433.51 240.097C436.26 247.737 456.97 261.197 456.97 261.197C456.97 261.197 456.771 314.527 457.541 327.967C458.311 341.407 486.16 385.287 486.16 385.287L512.26 362.117C512.26 362.117 492.03 328.287 490.64 320.337C489.25 312.377 498 270.577 498 253.557C498 250.417 497.71 247.167 497.23 243.947C496.19 236.847 494.26 229.907 492.58 224.757C490.91 219.607 489.5 216.227 489.5 216.227C489.5 216.227 475.321 218.287 461.161 222.247C448.201 225.867 435.29 231.097 433.32 237.767C433.12 238.447 433.2 239.237 433.51 240.097Z" fill="#25B2C2"/>
<path d="M433.508 240.1C440.408 244.18 447.598 247.77 454.998 250.82C455.458 249.59 455.918 248.36 456.558 247.13C457.208 248.54 457.868 249.93 458.668 251.84C471.428 248.64 484.308 245.93 497.238 243.95C496.198 236.85 494.268 229.91 492.588 224.76C482.128 223.78 471.648 222.94 461.168 222.25C448.208 225.87 435.298 231.1 433.328 237.77C433.118 238.45 433.198 239.24 433.508 240.1Z" fill="#1D9FB3"/>
<path d="M505.991 152.469C505.001 146.469 482.291 138.759 474.571 139.459C457.991 140.969 445.981 143.979 442.201 146.349C438.421 148.719 434.971 170.859 434.971 177.029C434.971 184.329 437.481 198.659 436.811 204.439C435.511 215.649 428.711 239.389 428.711 239.389L453.701 248.149L456.801 242.688L459.631 249.609L500.931 240.139C500.931 240.139 497.771 207.249 497.771 201.479C497.781 195.949 507.271 160.209 505.991 152.469Z" fill="#27B8C1"/>
<path d="M467.416 156.383C459.116 199.613 458.656 211.993 456.766 242.363" stroke="#51DBDB" stroke-miterlimit="10" stroke-linecap="round"/>
<path d="M468.515 166.335C469.283 166.335 469.905 165.712 469.905 164.945C469.905 164.177 469.283 163.555 468.515 163.555C467.747 163.555 467.125 164.177 467.125 164.945C467.125 165.712 467.747 166.335 468.515 166.335Z" fill="#136D94"/>
<path d="M465.038 185.241C465.806 185.241 466.428 184.619 466.428 183.851C466.428 183.083 465.806 182.461 465.038 182.461C464.271 182.461 463.648 183.083 463.648 183.851C463.648 184.619 464.271 185.241 465.038 185.241Z" fill="#136D94"/>
<path d="M462.359 205.178C463.126 205.178 463.749 204.556 463.749 203.788C463.749 203.021 463.126 202.398 462.359 202.398C461.591 202.398 460.969 203.021 460.969 203.788C460.969 204.556 461.591 205.178 462.359 205.178Z" fill="#136D94"/>
<path d="M460.968 228.022C461.736 228.022 462.358 227.4 462.358 226.632C462.358 225.865 461.736 225.242 460.968 225.242C460.2 225.242 459.578 225.865 459.578 226.632C459.578 227.4 460.2 228.022 460.968 228.022Z" fill="#136D94"/>
<path d="M419.211 183.145L423.351 183.475L423.671 183.505L451.431 176.215C453.331 175.205 453.651 173.646 453.201 172.376C452.631 170.796 450.781 170.055 449.191 170.615L422.711 179.975L422.441 180.215L419.211 183.145Z" fill="#136D94"/>
<path d="M419.211 183.149L420.351 183.239L423.351 183.479C423.261 183.409 423.161 183.339 423.081 183.249C422.731 182.899 422.521 182.379 422.671 181.909C422.731 181.709 422.851 181.499 422.771 181.309C422.731 181.219 422.651 181.159 422.591 181.089C422.391 180.859 422.361 180.509 422.431 180.219L420.061 182.379L419.211 183.149Z" fill="#D68A5A"/>
<path d="M419.211 183.145L420.351 183.235C420.231 183.105 420.151 182.955 420.101 182.785C420.061 182.655 420.051 182.515 420.061 182.375L419.211 183.145Z" fill="#24151A"/>
<path d="M452.013 189.317C449.283 184.257 446.563 179.197 443.653 174.127C441.493 172.447 439.063 171.177 436.583 170.227C433.623 171.187 430.843 172.957 428.553 175.337C427.993 175.927 427.403 176.757 427.663 177.547C427.853 178.127 428.453 178.407 429.013 178.367C429.563 178.327 430.083 178.027 430.583 177.737C432.093 176.857 433.603 175.967 435.353 175.117C435.843 175.537 436.333 175.957 436.703 176.387C435.683 176.397 434.663 176.417 433.443 176.767C431.493 177.687 429.583 178.737 427.733 179.917C427.213 180.247 426.643 180.687 426.583 181.347C426.533 181.887 426.863 182.377 427.293 182.607C427.723 182.837 428.213 182.847 428.693 182.807C430.433 182.687 432.163 182.057 433.593 180.977C434.173 181.147 434.753 181.317 435.193 181.597C434.443 181.737 433.693 181.877 432.993 182.227C432.293 182.577 431.653 183.157 431.343 183.947C431.033 184.737 431.143 185.737 431.553 186.567C431.153 186.717 430.933 187.237 430.953 187.707C430.973 188.177 431.173 188.597 431.373 188.997C431.803 189.847 432.273 190.667 432.783 191.447C433.273 192.177 433.833 192.897 434.603 193.217C435.373 193.527 436.383 193.307 436.893 192.347C438.953 195.907 442.813 197.997 446.553 197.597C448.783 195.187 450.643 192.357 452.013 189.317Z" fill="#DB8E62"/>
<path d="M440.118 176.965C439.128 176.555 438.078 176.415 437.008 176.305" stroke="#A8473E" stroke-width="0.5" stroke-miterlimit="10" stroke-linecap="round"/>
<path d="M438.105 181.333C437.105 181.253 436.125 181.283 435.375 181.413" stroke="#A8473E" stroke-width="0.5" stroke-miterlimit="10" stroke-linecap="round"/>
<path d="M431.695 186.253C433.085 185.483 435.385 185.043 436.965 185.243" stroke="#A8473E" stroke-width="0.5" stroke-miterlimit="10" stroke-linecap="round"/>
<path d="M436.462 192.078C435.972 191.288 435.542 189.988 435.352 189.078" stroke="#A8473E" stroke-width="0.5" stroke-miterlimit="10" stroke-linecap="round"/>
<path d="M435.675 190.703C435.045 190.783 434.385 190.893 433.875 190.843" stroke="#A8473E" stroke-width="0.5" stroke-miterlimit="10" stroke-linecap="round"/>
<path d="M444.867 196.304C444.867 196.304 479.427 225.614 488.757 222.314C492.467 220.994 496.147 210.234 498.817 200.214C501.277 191.004 502.877 182.434 502.877 182.434L483.297 174.164C483.297 174.164 481.987 183.044 480.667 190.264C479.797 195.134 478.917 199.244 478.447 199.364C476.447 199.924 451.077 188.634 451.077 188.634L444.867 196.304Z" fill="#DB8E62"/>
<path d="M480.664 190.272C485.334 193.332 492.674 197.842 498.804 200.222C501.264 191.012 502.864 182.442 502.864 182.442L483.284 174.172C483.284 174.172 481.984 183.052 480.664 190.272Z" fill="#CF6E4A"/>
<path d="M502.872 192.864C494.302 191.234 487.502 189.824 479.312 186.894C480.472 177.274 483.183 159.874 485.383 154.514C486.943 150.714 493.072 144.034 499.982 146.924C506.892 149.814 509.543 154.374 508.812 166.404C508.542 170.684 504.472 184.154 502.872 192.864Z" fill="#32C9CF"/>
<path d="M461.094 143.833C461.094 143.833 463.104 152.933 466.984 155.593C470.864 158.253 485.554 141.893 485.554 141.893C483.024 139.533 482.414 134.903 482.444 130.803C482.474 126.623 483.174 123.023 483.174 123.023L465.274 128.193C465.454 132.613 465.094 135.803 464.534 138.093C463.314 143.063 461.094 143.833 461.094 143.833Z" fill="#DB8E62"/>
<path d="M464.547 138.093C472.797 139.843 479.107 134.593 482.447 130.803C482.477 126.623 483.177 123.023 483.177 123.023L465.277 128.193C465.467 132.623 465.107 135.803 464.547 138.093Z" fill="#CF6E4A"/>
<path d="M467.639 155.91C467.409 155.87 468.559 149.73 469.139 149.2C469.719 148.67 483.829 136.31 484.669 136.77C485.899 137.43 487.929 141.35 487.929 141.35C487.929 141.35 485.029 145.28 479.559 149.72C475.799 152.77 469.799 156.28 467.639 155.91Z" fill="#136D94"/>
<path d="M467.641 155.879C467.951 155.569 467.321 149.479 466.961 148.919C465.791 147.069 463.811 142.249 463.811 138.969C463.811 138.969 460.251 140.319 459.811 141.099C459.381 141.889 461.311 147.659 462.801 150.409C465.331 155.039 467.391 156.129 467.641 155.879Z" fill="#136D94"/>
<path d="M458.011 115.054C458.349 112.069 455.309 109.273 451.221 108.81C447.133 108.346 443.545 110.391 443.206 113.376C442.868 116.361 445.908 119.157 449.996 119.62C454.084 120.083 457.673 118.039 458.011 115.054Z" fill="#CF6E4A"/>
<path d="M493.021 105.624C493.021 91.5238 483.271 80.0938 471.241 80.0938C459.211 80.0938 449.461 91.5238 449.461 105.624C449.461 119.724 455.471 133.744 467.661 133.244C479.671 132.744 493.021 119.724 493.021 105.624Z" fill="#DB8E62"/>
<path d="M488.188 111.671C485.658 108.921 484.058 103.731 483.668 101.521C481.248 100.821 478.318 98.5013 476.848 95.3713C473.158 99.0613 459.138 101.141 454.458 99.9213C451.128 104.031 451.028 106.071 449.848 111.321C449.088 104.911 449.428 98.3713 450.838 92.0713C459.608 89.2413 468.188 85.8313 476.508 81.8513C477.928 81.1713 479.628 80.4813 480.988 81.2813C481.858 81.7913 482.308 82.7813 482.758 83.6913C484.638 87.5213 487.338 90.9513 490.618 93.6813C491.468 94.3913 492.438 95.1913 492.478 96.2913C492.508 97.0113 492.128 97.6713 491.778 98.3013C490.208 101.191 490.478 108.141 488.188 111.671Z" fill="#CF6E4A"/>
<path d="M445.759 96.9833C445.689 102.323 450.039 113.413 450.039 113.413C450.039 113.413 450.069 104.283 454.229 98.3533C462.839 98.3533 472.379 97.9533 477.659 93.0533C479.189 96.9333 481.819 99.1933 484.989 100.253C484.889 105.093 487.109 109.623 488.499 113.693C491.209 112.043 493.249 112.743 495.459 110.133C496.739 105.403 498.099 98.0133 497.709 93.4433C497.389 89.7633 496.389 86.0433 494.389 82.9533C493.919 82.2133 493.379 81.5033 492.789 80.8433C489.709 77.4333 484.849 75.4433 480.399 76.5533C477.939 73.5933 474.139 71.8433 470.349 71.6333C466.549 71.4233 462.779 72.6133 459.469 74.5033C453.019 78.1733 447.979 83.8533 446.329 91.7533C445.969 93.4533 445.789 95.2033 445.759 96.9833Z" fill="#412408"/>
<path d="M445.758 96.9855C445.938 96.2955 446.158 95.6155 446.408 94.9455C447.638 91.6955 449.638 88.7755 451.938 86.1655C455.408 82.1855 459.718 78.7555 464.808 77.3355C469.898 75.9255 475.808 76.8155 479.608 80.4855C484.408 78.4455 490.298 79.5555 494.378 82.9455C493.908 82.2055 493.368 81.4955 492.778 80.8355C489.698 77.4255 484.838 75.4355 480.388 76.5455C477.928 73.5855 474.128 71.8355 470.338 71.6255C466.538 71.4155 462.768 72.6055 459.458 74.4955C453.008 78.1655 447.968 83.8455 446.318 91.7455C445.968 93.4555 445.788 95.2055 445.758 96.9855Z" fill="#664216"/>
<path d="M491.69 109.011C495.676 107.991 499.512 109.523 500.257 112.434C501.002 115.345 498.375 118.531 494.389 119.552C490.403 120.572 486.567 119.04 485.822 116.129C485.076 113.219 487.703 110.032 491.69 109.011Z" fill="#DB8E62"/>
<path d="M472.723 116.587C473.248 116.587 473.673 115.906 473.673 115.067C473.673 114.227 473.248 113.547 472.723 113.547C472.199 113.547 471.773 114.227 471.773 115.067C471.773 115.906 472.199 116.587 472.723 116.587Z" fill="#411F00"/>
<path d="M455.27 116.587C455.795 116.587 456.22 115.906 456.22 115.067C456.22 114.227 455.795 113.547 455.27 113.547C454.746 113.547 454.32 114.227 454.32 115.067C454.32 115.906 454.746 116.587 455.27 116.587Z" fill="#411F00"/>
<path d="M458.071 105.855C456.251 105.225 454.161 105.385 452.461 106.305" stroke="#412408" stroke-width="2" stroke-miterlimit="10" stroke-linecap="round"/>
<path d="M471.242 106.646C473.282 105.756 475.772 106.006 477.602 107.266" stroke="#412408" stroke-width="2" stroke-miterlimit="10" stroke-linecap="round"/>
<path d="M461.801 116.227C461.641 117.207 461.652 119.547 461.822 120.497" stroke="#A8473E" stroke-width="2" stroke-miterlimit="10" stroke-linecap="round"/>
<path d="M462.867 124.713C465.517 125.763 468.287 125.193 469.717 123.023" stroke="#A8473E" stroke-width="2" stroke-miterlimit="10" stroke-linecap="round"/>
<path d="M155.448 93.13C175.711 93.13 192.138 76.7033 192.138 56.44C192.138 36.1767 175.711 19.75 155.448 19.75C135.184 19.75 118.758 36.1767 118.758 56.44C118.758 76.7033 135.184 93.13 155.448 93.13Z" fill="#FFA8B1"/>
<path d="M131.475 44.1019C139.505 29.1419 155.385 49.2219 155.385 49.2219C155.385 49.2219 171.295 32.0619 179.295 43.2119C187.605 54.7819 155.385 81.7319 155.385 81.7319C155.385 81.7319 124.645 56.8319 131.475 44.1019Z" fill="#B82621"/>
<path d="M128.828 60.8913L139.958 61.0113L143.418 47.4713L150.548 73.2113L156.188 42.0312L162.318 70.1113L165.978 49.7513L169.898 60.4313L182.068 60.7613" stroke="white" stroke-miterlimit="10" stroke-linecap="round"/>
<path d="M257.008 151.117C277.718 151.117 294.508 134.328 294.508 113.617C294.508 92.9065 277.718 76.1172 257.008 76.1172C236.297 76.1172 219.508 92.9065 219.508 113.617C219.508 134.328 236.297 151.117 257.008 151.117Z" fill="#FFA8B1"/>
<path d="M277.021 115.28L248.321 131.72C242.861 134.85 235.901 132.96 232.781 127.51C231.221 124.78 230.911 121.68 231.671 118.86C232.431 116.04 234.261 113.53 237.001 111.96L265.701 95.5196C271.151 92.3996 278.111 94.2896 281.241 99.7496C282.801 102.48 283.111 105.58 282.341 108.39C281.581 111.21 279.751 113.72 277.021 115.28Z" fill="white"/>
<path d="M277.024 115.28L262.664 123.5L251.344 103.74L265.704 95.5196C271.154 92.3996 278.114 94.2896 281.244 99.7496C282.804 102.48 283.114 105.58 282.344 108.39C281.584 111.21 279.754 113.72 277.024 115.28Z" fill="#B82621"/>
<path d="M352.378 81.13C372.641 81.13 389.068 64.7033 389.068 44.44C389.068 24.1767 372.641 7.75 352.378 7.75C332.114 7.75 315.688 24.1767 315.688 44.44C315.688 64.7033 332.114 81.13 352.378 81.13Z" fill="#FFA8B1"/>
<path d="M371.074 26.0309V51.1809C371.074 57.3109 367.964 63.0509 362.774 66.4309L352.374 72.5009L342.834 66.3109C337.154 63.0309 333.664 57.0109 333.664 50.5209V26.0309L352.244 20.7109L352.374 20.7509L371.074 26.0309Z" fill="white"/>
<path d="M371.075 26.03V51.18C371.075 57.31 367.965 63.05 362.775 66.43L352.375 72.5V20.75L371.075 26.03Z" fill="#F2E4E5"/>
<path d="M356.685 32.3906H348.055V60.8106H356.685V32.3906Z" fill="#B82621"/>
<path d="M366.576 42.2891H338.156V50.9191H366.576V42.2891Z" fill="#B82621"/>
</svg>
